<svg width="49" height="48" viewBox="0 0 49 48" fill="none" xmlns="http://www.w3.org/2000/svg">
<rect x="1.31611" y="0.769231" width="46.4615" height="46.4615" rx="3.23077" fill="#F7F8F9" stroke="#C071DD" stroke-width="1.53846"/>
<mask id="mask0_291_12651" style="mask-type:alpha" maskUnits="userSpaceOnUse" x="2" y="1" width="45" height="46">
<rect x="2.22766" y="1.84961" width="44.6131" height="44.6024" rx="4" fill="#E3EFFF"/>
</mask>
<g mask="url(#mask0_291_12651)">
<rect x="1.95874" y="1.53516" width="45.0024" height="44.9916" rx="4" fill="url(#paint0_radial_291_12651)"/>
</g>
<g filter="url(#filter0_d_291_12651)">
<path d="M20.0469 13.5H15.956C14.9016 13.5 14.0469 14.3547 14.0469 15.4091C14.0469 25.9527 22.5942 34.5 33.1378 34.5C34.1921 34.5 35.0469 33.6452 35.0469 32.5909V28.4999L30.5469 25.5L28.2135 27.8333C27.8082 28.2387 27.2026 28.3647 26.6934 28.1017C25.8298 27.6554 24.4283 26.8172 23.0469 25.5C21.6325 24.1513 20.8038 22.6981 20.3878 21.8189C20.1547 21.326 20.2897 20.7572 20.6752 20.3717L23.0469 18L20.0469 13.5Z" fill="#F8E6FF" stroke="#C071DD" stroke-width="1.23077" stroke-linecap="round" stroke-linejoin="round"/>
<path d="M15.9559 13.5H20.0468L23.0469 18L20.6752 20.3717L15.9559 13.5Z" fill="#C071DD" stroke="#C071DD" stroke-width="1.23077" stroke-linecap="round" stroke-linejoin="round"/>
<path d="M35.0469 32.5909C35.0469 33.6453 34.1921 34.5 33.1378 34.5L28.2135 27.8333L30.547 25.5L35.0469 28.5V32.5909Z" fill="#C071DD" stroke="#C071DD" stroke-width="1.23077" stroke-linecap="round" stroke-linejoin="round"/>
</g>
<defs>
<filter id="filter0_d_291_12651" x="9.43152" y="9.88477" width="30.2307" height="30.2305" filterUnits="userSpaceOnUse" color-interpolation-filters="sRGB">
<feFlood flood-opacity="0" result="BackgroundImageFix"/>
<feColorMatrix in="SourceAlpha" type="matrix" values="0 0 0 0 0 0 0 0 0 0 0 0 0 0 0 0 0 0 127 0" result="hardAlpha"/>
<feOffset dy="1"/>
<feGaussianBlur stdDeviation="2"/>
<feComposite in2="hardAlpha" operator="out"/>
<feColorMatrix type="matrix" values="0 0 0 0 0.0969792 0 0 0 0 0.127894 0 0 0 0 0.2375 0 0 0 0.08 0"/>
<feBlend mode="normal" in2="BackgroundImageFix" result="effect1_dropShadow_291_12651"/>
<feBlend mode="normal" in="SourceGraphic" in2="effect1_dropShadow_291_12651" result="shape"/>
</filter>
<radialGradient id="paint0_radial_291_12651" cx="0" cy="0" r="1" gradientUnits="userSpaceOnUse" gradientTransform="translate(24.4599 24.031) rotate(90) scale(22.4958 22.5012)">
<stop stop-color="#F6FAFD" stop-opacity="0.28"/>
<stop offset="1" stop-color="#F6FAFD"/>
</radialGradient>
</defs>
</svg>
