<svg width="64" height="64" viewBox="0 0 64 64" fill="none" xmlns="http://www.w3.org/2000/svg">
<circle cx="32" cy="32" r="32" fill="#DCFCE7"/>
<rect width="64" height="64" rx="6" fill="#3A6EA5"/>
<path d="M41.71 27.2899C41.617 27.1962 41.5064 27.1218 41.3846 27.071C41.2627 27.0203 41.132 26.9941 41 26.9941C40.868 26.9941 40.7373 27.0203 40.6154 27.071C40.4936 27.1218 40.383 27.1962 40.29 27.2899L34 33.5899L29.71 29.2899C29.617 29.1962 29.5064 29.1218 29.3846 29.071C29.2627 29.0203 29.132 28.9941 29 28.9941C28.868 28.9941 28.7373 29.0203 28.6154 29.071C28.4936 29.1218 28.383 29.1962 28.29 29.2899L22.29 35.2899C22.1963 35.3829 22.1219 35.4935 22.0711 35.6154C22.0203 35.7372 21.9942 35.8679 21.9942 35.9999C21.9942 36.132 22.0203 36.2627 22.0711 36.3845C22.1219 36.5064 22.1963 36.617 22.29 36.7099C22.383 36.8037 22.4936 36.8781 22.6154 36.9288C22.7373 36.9796 22.868 37.0057 23 37.0057C23.132 37.0057 23.2627 36.9796 23.3846 36.9288C23.5064 36.8781 23.617 36.8037 23.71 36.7099L29 31.4099L33.29 35.7099C33.383 35.8037 33.4936 35.8781 33.6154 35.9288C33.7373 35.9796 33.868 36.0057 34 36.0057C34.132 36.0057 34.2627 35.9796 34.3846 35.9288C34.5064 35.8781 34.617 35.8037 34.71 35.7099L41.71 28.7099C41.8037 28.617 41.8781 28.5064 41.9289 28.3845C41.9797 28.2627 42.0058 28.132 42.0058 27.9999C42.0058 27.8679 41.9797 27.7372 41.9289 27.6154C41.8781 27.4935 41.8037 27.3829 41.71 27.2899Z" fill="white"/>
</svg>
