<svg width="64" height="64" viewBox="0 0 64 64" fill="none" xmlns="http://www.w3.org/2000/svg">
<circle cx="32" cy="32" r="32" fill="#DCFCE7"/>
<rect width="64" height="64" rx="6" fill="#3A6EA5"/>
<path d="M43.02 29C43.02 30.104 42.124 31 41.02 31C40.738 31 40.47 30.94 40.226 30.835L36.855 34.2061C36.961 34.4501 37.021 34.717 37.021 35C37.021 36.104 36.125 37 35.021 37C33.917 37 33.016 36.104 33.016 35C33.016 34.727 33.071 34.467 33.17 34.229L29.787 30.8459C29.551 30.9439 29.292 30.999 29.021 30.999C28.739 30.999 28.471 30.939 28.227 30.834L24.856 34.2051C24.962 34.4491 25.022 34.716 25.022 34.999C25.022 36.103 24.126 36.999 23.022 36.999C21.918 36.999 21.017 36.103 21.017 34.999C21.017 33.895 21.907 32.999 23.012 32.999H23.022C23.294 32.999 23.552 33.0541 23.788 33.1521L27.172 29.7681C27.073 29.5311 27.017 29.271 27.017 28.999C27.017 27.895 27.907 26.999 29.012 26.999H29.022C30.126 26.999 31.022 27.895 31.022 28.999C31.022 29.281 30.962 29.549 30.856 29.793L34.224 33.1609C34.465 33.0569 34.731 32.999 35.011 32.999H35.021C35.293 32.999 35.551 33.0541 35.787 33.1521L39.171 29.7681C39.072 29.5311 39.016 29.271 39.016 28.999C39.016 27.895 39.906 26.999 41.011 26.999H41.021C42.125 27 43.02 27.896 43.02 29Z" fill="white"/>
</svg>
