<svg width="64" height="64" viewBox="0 0 64 64" fill="none" xmlns="http://www.w3.org/2000/svg">
<circle cx="32" cy="32" r="32" fill="#DCFCE7"/>
<rect width="64" height="64" rx="6" fill="#3A6EA5"/>
<path d="M23.001 31.855C22.974 31.855 22.946 31.854 22.919 31.851C22.507 31.806 22.2091 31.435 22.2551 31.024C22.6171 27.706 24.619 24.85 27.61 23.382C27.843 23.268 28.1171 23.2819 28.3371 23.4189C28.5571 23.5559 28.6911 23.797 28.6911 24.056V27.106C28.6911 27.52 28.3551 27.856 27.9411 27.856C27.5271 27.856 27.1911 27.52 27.1911 27.106V25.365C25.2671 26.703 24.006 28.805 23.746 31.188C23.703 31.571 23.379 31.855 23.001 31.855ZM36.3901 40.729C39.3811 39.261 41.383 36.404 41.745 33.087C41.791 32.675 41.4931 32.305 41.0811 32.26C40.6681 32.218 40.3001 32.512 40.2551 32.924C39.9941 35.307 38.7341 37.4079 36.8101 38.7469V37.006C36.8101 36.592 36.4741 36.256 36.0601 36.256C35.6461 36.256 35.3101 36.592 35.3101 37.006V40.056C35.3101 40.315 35.444 40.556 35.664 40.693C35.785 40.768 35.9231 40.806 36.0601 40.806C36.1731 40.806 36.2851 40.78 36.3901 40.729ZM35.5051 26.25C34.1261 26.25 33.0051 25.128 33.0051 23.75C33.0051 22.372 34.1261 21.25 35.5051 21.25C36.8841 21.25 38.0051 22.372 38.0051 23.75C38.0051 25.128 36.8841 26.25 35.5051 26.25ZM35.5051 22.75C34.9531 22.75 34.5051 23.199 34.5051 23.75C34.5051 24.301 34.9531 24.75 35.5051 24.75C36.0571 24.75 36.5051 24.301 36.5051 23.75C36.5051 23.199 36.0571 22.75 35.5051 22.75ZM37.4991 32.75H33.501C32.092 32.75 31.25 31.912 31.25 30.509C31.25 28.886 32.255 27.25 34.5 27.25H36.5C38.745 27.25 39.75 28.887 39.75 30.509C39.75 31.912 38.9081 32.75 37.4991 32.75ZM34.5 28.75C32.978 28.75 32.75 29.852 32.75 30.509C32.75 31.084 32.918 31.25 33.501 31.25H37.4991C38.0821 31.25 38.25 31.084 38.25 30.509C38.25 29.852 38.022 28.75 36.5 28.75H34.5ZM27.5051 36.25C26.1261 36.25 25.0051 35.128 25.0051 33.75C25.0051 32.372 26.1261 31.25 27.5051 31.25C28.8841 31.25 30.0051 32.372 30.0051 33.75C30.0051 35.128 28.8841 36.25 27.5051 36.25ZM27.5051 32.75C26.9531 32.75 26.5051 33.199 26.5051 33.75C26.5051 34.301 26.9531 34.75 27.5051 34.75C28.0571 34.75 28.5051 34.301 28.5051 33.75C28.5051 33.199 28.0571 32.75 27.5051 32.75ZM29.4991 42.75H25.501C24.092 42.75 23.25 41.912 23.25 40.509C23.25 38.886 24.255 37.25 26.5 37.25H28.5C30.745 37.25 31.75 38.887 31.75 40.509C31.75 41.912 30.9081 42.75 29.4991 42.75ZM26.5 38.75C24.978 38.75 24.75 39.852 24.75 40.509C24.75 41.084 24.918 41.25 25.501 41.25H29.4991C30.0821 41.25 30.25 41.084 30.25 40.509C30.25 39.852 30.022 38.75 28.5 38.75H26.5Z" fill="white"/>
</svg>
