<svg width="64" height="64" viewBox="0 0 64 64" fill="none" xmlns="http://www.w3.org/2000/svg">
<circle cx="32" cy="32" r="32" fill="#DCFCE7"/>
<rect width="64" height="64" rx="6" fill="#3A6EA5"/>
<path d="M28.9139 38.7501C28.3399 38.7501 27.847 38.3692 27.704 37.8082L26.465 32.9351C26.437 32.8241 26.337 32.7471 26.223 32.7471H23C22.586 32.7471 22.25 32.4111 22.25 31.9971C22.25 31.5831 22.586 31.2471 23 31.2471H26.223C27.025 31.2471 27.722 31.789 27.918 32.566L28.8719 36.317L30.835 25.2811C30.939 24.6901 31.432 24.2661 32.032 24.2501C32.639 24.2201 33.147 24.6311 33.283 25.2171L35.265 33.743L36.053 32.201C36.354 31.613 36.9501 31.2471 37.6121 31.2471H41C41.414 31.2471 41.75 31.5831 41.75 31.9971C41.75 32.4111 41.414 32.7471 41 32.7471H37.6121C37.5171 32.7471 37.432 32.7991 37.389 32.8831L36.2889 35.035C36.0489 35.507 35.554 35.7731 35.024 35.7071C34.497 35.6431 34.079 35.2671 33.959 34.7491L32.098 26.742L30.146 37.7171C30.042 38.3021 29.554 38.7261 28.96 38.7481C28.945 38.7501 28.9299 38.7501 28.9139 38.7501Z" fill="white"/>
</svg>
