<svg width="64" height="64" viewBox="0 0 64 64" fill="none" xmlns="http://www.w3.org/2000/svg">
<circle cx="32" cy="32" r="32" fill="#DCFCE7"/>
<rect width="64" height="64" rx="6" fill="#3A6EA5"/>
<path d="M41.75 32.0049C41.75 30.5699 40.9631 29.2959 39.7371 28.6589C39.7461 28.5499 39.75 28.437 39.75 28.323C39.75 26.102 38.196 25.0469 37.488 24.6809C37.072 23.6899 35.971 22.25 34 22.25C33.227 22.25 32.51 22.613 32 23.167C31.49 22.614 30.773 22.25 30 22.25C28.028 22.25 26.928 23.6899 26.512 24.6809C25.804 25.0469 24.25 26.102 24.25 28.323C24.25 28.438 24.2539 28.5499 24.2629 28.6589C23.0369 29.2959 22.25 30.5699 22.25 32.0049C22.25 32.5199 22.4739 33.166 22.6379 33.571C22.4639 33.947 22.25 34.574 22.25 35.387C22.25 37.435 23.671 39.1891 25.623 39.6431C26.231 41.0061 27.415 41.75 29 41.75C30.289 41.75 31.339 41.2139 32 40.3369C32.661 41.2139 33.711 41.75 35 41.75C36.585 41.75 37.769 41.0061 38.377 39.6431C40.329 39.1891 41.75 37.435 41.75 35.387C41.75 34.575 41.5361 33.947 41.3621 33.571C41.5261 33.167 41.75 32.5199 41.75 32.0049ZM29 40.25C27.909 40.25 27.217 39.7569 26.882 38.7439C26.791 38.4689 26.55 38.2701 26.262 38.2351C24.83 38.0591 23.75 36.835 23.75 35.387C23.75 34.56 24.088 34.031 24.088 34.031C24.238 33.812 24.262 33.5291 24.15 33.2881C23.989 32.9441 23.751 32.2979 23.751 32.0049C23.751 31.0189 24.397 30.1281 25.324 29.8391C25.71 29.7181 25.931 29.3131 25.823 28.9221C25.775 28.7491 25.751 28.547 25.751 28.322C25.751 26.571 27.307 25.9581 27.368 25.9351C27.589 25.8551 27.761 25.671 27.83 25.446C27.851 25.377 28.37 23.749 30.001 23.749C30.579 23.749 31.251 24.295 31.251 24.999V28.9619C30.783 28.5599 30.3761 28.3479 30.3361 28.3279C29.9671 28.1419 29.521 28.2929 29.333 28.6609C29.147 29.0299 29.295 29.48 29.662 29.668C29.679 29.676 31.251 30.499 31.251 31.999V33.9619C30.783 33.5599 30.3761 33.3479 30.3361 33.3279C29.9671 33.1429 29.521 33.2929 29.333 33.6609C29.147 34.0299 29.295 34.48 29.662 34.668C29.679 34.676 31.251 35.499 31.251 36.999V37.999C31.25 39.088 30.659 40.25 29 40.25ZM39.907 34.0239C39.911 34.0289 40.25 34.559 40.25 35.387C40.25 36.834 39.17 38.0591 37.738 38.2351C37.45 38.2711 37.209 38.4689 37.118 38.7439C36.783 39.7569 36.091 40.25 35 40.25C33.341 40.25 32.75 39.088 32.75 38V37C32.75 35.509 34.305 34.6869 34.338 34.6689C34.707 34.4829 34.856 34.0341 34.671 33.6641C34.485 33.2941 34.036 33.1431 33.665 33.3291C33.625 33.3491 33.218 33.5599 32.75 33.9629V32C32.75 30.509 34.305 29.6869 34.338 29.6689C34.707 29.4829 34.856 29.0341 34.671 28.6641C34.485 28.2941 34.036 28.1431 33.665 28.3291C33.625 28.3491 33.218 28.5599 32.75 28.9629V25C32.75 24.296 33.422 23.75 34 23.75C35.631 23.75 36.15 25.3781 36.17 25.4431C36.236 25.6681 36.4091 25.8511 36.6281 25.9351C36.6941 25.9601 38.25 26.572 38.25 28.324C38.25 28.549 38.226 28.7511 38.178 28.9241C38.07 29.3151 38.291 29.7201 38.677 29.8411C39.604 30.1301 40.25 31.0211 40.25 32.0071C40.25 32.3001 40.012 32.946 39.851 33.29C39.741 33.523 39.766 33.8069 39.907 34.0239Z" fill="white"/>
</svg>
