<svg width="64" height="64" viewBox="0 0 64 64" fill="none" xmlns="http://www.w3.org/2000/svg">
<circle cx="32" cy="32" r="32" fill="#DCFCE7"/>
<rect width="64" height="64" rx="6" fill="#3A6EA5"/>
<path d="M41 29.25H40H37.149L38.5179 27.708C38.6649 27.735 38.821 27.749 38.983 27.75C38.99 27.75 38.996 27.75 39.002 27.75C40.15 27.75 41.1191 27.1151 41.5341 26.0901C41.9741 25.0021 41.738 23.83 40.917 23.031C40.096 22.231 38.915 22.028 37.833 22.499C36.87 22.918 36.2501 23.9009 36.2531 25.0259L30.698 29.25H24H23C22.586 29.25 22.25 29.586 22.25 30C22.25 30.414 22.586 30.75 23 30.75H23.301C23.554 34.345 25.185 37.0531 27.911 38.3491C27.666 38.8261 27.4211 39.4951 27.3361 40.3621C27.3011 40.7191 27.418 41.0761 27.658 41.3411C27.893 41.6011 28.229 41.75 28.578 41.75H35.4301C35.7801 41.75 36.115 41.601 36.35 41.342C36.59 41.077 36.707 40.72 36.672 40.363C36.587 39.496 36.342 38.8261 36.097 38.3501C38.816 37.0561 40.444 34.348 40.699 30.751H41C41.414 30.751 41.75 30.415 41.75 30.001C41.75 29.587 41.414 29.25 41 29.25ZM37.1591 26.221C37.5361 25.935 37.752 25.494 37.75 25.001C37.749 24.497 38.017 24.055 38.432 23.874C38.951 23.647 39.489 23.733 39.87 24.105C40.251 24.476 40.352 25.0071 40.142 25.5271C39.958 25.9801 39.533 26.249 39.002 26.249C38.941 26.253 38.8551 26.244 38.7841 26.231C38.3151 26.147 37.821 26.3211 37.473 26.7041L35.1479 29.249H33.174L37.1591 26.221ZM28.861 40.25C28.979 39.489 29.245 39.007 29.418 38.75H34.588C34.764 39.009 35.029 39.491 35.146 40.25H28.861ZM34.816 37.25H29.193C26.586 36.326 25.037 34.04 24.785 30.75H39.215C38.96 34.043 37.414 36.33 34.816 37.25Z" fill="white"/>
</svg>
