<svg width="64" height="64" viewBox="0 0 64 64" fill="none" xmlns="http://www.w3.org/2000/svg">
<circle cx="32" cy="32" r="32" fill="#DCFCE7"/>
<rect width="64" height="64" rx="6" fill="#3A6EA5"/>
<path d="M27.75 32.9999C27.75 34.7919 29.208 36.2499 31 36.2499C32.485 36.2499 33.778 35.2489 34.144 33.8149C34.246 33.4129 34.661 33.1709 35.055 33.2729C35.457 33.3759 35.7 33.784 35.597 34.185C35.063 36.284 33.172 37.7499 31 37.7499C28.381 37.7499 26.25 35.6189 26.25 32.9999C26.25 30.8269 27.716 28.937 29.815 28.403C30.212 28.303 30.625 28.543 30.726 28.945C30.829 29.346 30.585 29.7549 30.184 29.8569C28.751 30.2209 27.75 31.5139 27.75 32.9999ZM38.885 31.715C38.474 31.762 38.178 32.1328 38.225 32.5448C38.243 32.6968 38.25 32.8479 38.25 32.9999C38.25 36.9979 34.998 40.2499 31 40.2499C27.002 40.2499 23.75 36.9979 23.75 32.9999C23.75 29.0019 27.002 25.7499 31 25.7499C31.152 25.7499 31.305 25.7578 31.457 25.7748C31.879 25.8198 32.24 25.524 32.285 25.112C32.331 24.7 32.035 24.3289 31.623 24.2829C31.416 24.2599 31.207 24.2489 31 24.2489C26.175 24.2489 22.25 28.1739 22.25 32.9989C22.25 37.8239 26.175 41.7489 31 41.7489C35.825 41.7489 39.75 37.8239 39.75 32.9989C39.75 32.7909 39.738 32.5819 39.715 32.3739C39.668 31.9629 39.305 31.669 38.885 31.715ZM41.53 27.53L38.969 30.091C38.55 30.51 37.97 30.7499 37.378 30.7499H34.31L31.53 33.53C31.384 33.676 31.192 33.7499 31 33.7499C30.808 33.7499 30.616 33.677 30.47 33.53C30.177 33.237 30.177 32.7619 30.47 32.4689L33.25 29.6889V26.621C33.25 26.029 33.49 25.449 33.909 25.03L36.47 22.4689C36.685 22.2539 37.007 22.1898 37.287 22.3058C37.567 22.4218 37.75 22.6959 37.75 22.9989V26.2489H41C41.304 26.2489 41.577 26.4318 41.693 26.7118C41.809 26.9928 41.745 27.316 41.53 27.53ZM34.75 26.621V28.1889L36.25 26.6889V24.81L34.97 26.09C34.83 26.23 34.75 26.424 34.75 26.621ZM39.189 27.7499H37.31L35.81 29.2499H37.378C37.575 29.2499 37.769 29.17 37.908 29.03L39.189 27.7499Z" fill="white"/>
</svg>
