<svg width="64" height="64" viewBox="0 0 64 64" fill="none" xmlns="http://www.w3.org/2000/svg">
<rect width="64" height="64" rx="6" fill="#9B5AB3"/>
<path d="M31.9993 44.9997C30.7191 44.9997 29.4388 44.5129 28.4653 43.5381L27.8772 42.9499C27.6905 42.7632 27.4331 42.6566 27.1704 42.6566H26.3423C23.587 42.6566 21.3438 40.4148 21.3438 37.6582V36.83C21.3438 36.5673 21.2372 36.3086 21.0505 36.1232L20.4623 35.5351C18.5126 33.5867 18.5126 30.4154 20.4623 28.4656L21.0505 27.8775C21.2372 27.6908 21.3438 27.4334 21.3438 27.1693V26.3412C21.3438 23.5846 23.587 21.3428 26.3423 21.3428H27.1704C27.4331 21.3428 27.6919 21.2361 27.8772 21.0494L28.4653 20.4613C30.4137 18.5129 33.5863 18.5129 35.5347 20.4613L36.1229 21.0494C36.3096 21.2361 36.5669 21.3428 36.8296 21.3428H37.6579C40.4131 21.3428 42.6562 23.5846 42.6562 26.3412V27.1693C42.6562 27.4334 42.763 27.6908 42.9497 27.8775L43.5377 28.4656C45.4874 30.414 45.4874 33.5854 43.5377 35.5351L42.9497 36.1232C42.763 36.3099 42.6562 36.5673 42.6562 36.83V37.6582C42.6562 40.4148 40.4131 42.6566 37.6579 42.6566H36.8296C36.5669 42.6566 36.3083 42.7632 36.1229 42.9486L35.5347 43.5381C34.5599 44.5129 33.2796 44.9997 31.9993 44.9997ZM26.3408 23.3432C24.6885 23.3432 23.3429 24.6888 23.3429 26.3412V27.1693C23.3429 27.9708 23.0308 28.7243 22.464 29.2911L21.876 29.8793C21.3092 30.446 20.9984 31.1982 20.9984 31.9997C20.9984 32.8012 21.3092 33.5533 21.876 34.1201L22.464 34.7083C23.0308 35.275 23.3429 36.0285 23.3429 36.83V37.6582C23.3429 39.3119 24.6885 40.6561 26.3408 40.6561H27.1691C27.9599 40.6561 28.7333 40.9762 29.2908 41.535L29.879 42.1231C31.0125 43.2554 32.9862 43.2554 34.1197 42.1231L34.7079 41.535C35.2654 40.9762 36.0388 40.6561 36.8296 40.6561H37.6579C39.3102 40.6561 40.6558 39.3105 40.6558 37.6582V36.83C40.6558 36.0285 40.9679 35.275 41.5347 34.7083L42.1227 34.1201C42.6895 33.5533 43.0003 32.8012 43.0003 31.9997C43.0003 31.1982 42.6895 30.446 42.1227 29.8793L41.5347 29.2911C40.9679 28.7243 40.6558 27.9708 40.6558 27.1693V26.3412C40.6558 24.6875 39.3102 23.3432 37.6579 23.3432H36.8296C36.0401 23.3432 35.2667 23.0232 34.7079 22.4644L34.1197 21.8763C32.9862 20.744 31.0125 20.744 29.879 21.8763L29.2908 22.4644C28.732 23.0232 27.9586 23.3432 27.1691 23.3432H26.3408ZM31.3726 35.3737L36.707 30.0393C37.0978 29.6485 37.0978 29.0151 36.707 28.6243C36.3163 28.2336 35.6828 28.2336 35.292 28.6243L30.6644 33.2519L28.7041 31.2915C28.3133 30.9008 27.6798 30.9008 27.2891 31.2915C26.8983 31.6823 26.8983 32.3158 27.2891 32.7065L29.9563 35.3737C30.151 35.5684 30.4071 35.6671 30.6631 35.6671C30.9192 35.6671 31.1779 35.5698 31.3726 35.3737Z" fill="white"/>
</svg>
