<svg width="24" height="24" viewBox="0 0 24 24" fill="none" xmlns="http://www.w3.org/2000/svg">
<rect width="24" height="24" rx="4" fill="#3A6EA5"/>
<path d="M12.2924 16.6533L9.5843 16.6027C8.70747 16.585 7.82846 16.6202 6.96882 16.4375C5.66111 16.1645 5.56847 14.8259 5.47152 13.7031C5.33795 12.1245 5.38966 10.5173 5.64173 8.95192C5.78404 8.07358 6.34406 7.54947 7.21011 7.49243C10.1337 7.28545 13.0767 7.30998 15.9938 7.40654C16.3019 7.4154 16.6121 7.46378 16.9158 7.51885C18.4154 7.78747 18.4519 9.3044 18.5492 10.5814C18.6461 11.8715 18.6052 13.1683 18.4199 14.4497C18.2712 15.5106 17.9868 16.4003 16.7866 16.4862C15.2827 16.5985 13.8134 16.6889 12.3053 16.6601C12.3054 16.6533 12.2967 16.6533 12.2924 16.6533ZM10.7003 13.9673C11.8336 13.3024 12.9452 12.6485 14.072 11.988C12.9366 11.3231 11.8271 10.6692 10.7003 10.0087V13.9673Z" fill="#F7F9FB"/>
</svg>
